<?xml version="1.0" standalone="no"?>
<!DOCTYPE svg PUBLIC "-//W3C//DTD SVG 20010904//EN"
 "http://www.w3.org/TR/2001/REC-SVG-20010904/DTD/svg10.dtd">
<svg version="1.0" xmlns="http://www.w3.org/2000/svg"
 width="1000.000000pt" height="1000.000000pt" viewBox="0 0 1000.000000 1000.000000"
 preserveAspectRatio="xMidYMid meet">
<metadata>
Created by potrace 1.11, written by Peter Selinger 2001-2013
</metadata>
<g transform="translate(0.000000,1000.000000) scale(0.100000,-0.100000)"
fill="#000000" stroke="none">
<path d="M1940 4995 l0 -4475 3060 0 3060 0 0 2443 0 2442 -998 -2 c-548 -1
-1007 -2 -1019 -2 l-23 -1 0 -1435 c0 -1360 -1 -1435 -17 -1436 -10 0 -468 -1
-1018 -1 l-1000 -1 0 2454 0 2454 2035 0 2035 0 3 1018 2 1017 -3060 0 -3060
0 0 -4475z"/>
</g>
</svg>
