<?xml version="1.0" encoding="utf-8"?>
<!-- Generator: Adobe Illustrator 21.0.0, SVG Export Plug-In . SVG Version: 6.00 Build 0)  -->
<svg version="1.1" id="Ebene_1" xmlns="http://www.w3.org/2000/svg" xmlns:xlink="http://www.w3.org/1999/xlink" x="0px" y="0px"
	 viewBox="0 0 329.2 70.3" style="enable-background:new 0 0 329.2 70.3;" xml:space="preserve">
<style type="text/css">
	.st0{fill:#010202;}
</style>
<g>
	<path class="st0" d="M87,55.3h1.3l-0.1,1.9c0.4-0.6,0.9-1.2,1.3-1.6c0.4-0.4,1.1-0.6,2.1-0.6c1.5,0,2.6,0.5,3.3,1.5
		c0.7,1,1.1,2.3,1.1,4c0,1.6-0.4,3-1.1,4s-1.8,1.5-3.2,1.5c-1.5,0-2.6-0.7-3.3-2l0,6.2H87V55.3z M91.4,56.2c-1,0-1.8,0.4-2.4,1.3
		c-0.5,0.9-0.8,1.9-0.8,3.1c0,1.1,0.3,2.2,0.8,3.1c0.5,0.9,1.3,1.3,2.4,1.3c1.1,0,1.9-0.4,2.4-1.3c0.5-0.9,0.7-1.9,0.7-3.1
		c0-1.2-0.2-2.3-0.7-3.1C93.4,56.6,92.6,56.2,91.4,56.2z"/>
	<path class="st0" d="M106.4,65.5c-0.5,0.2-0.9,0.3-1.5,0.4c-0.5,0.1-1.1,0.2-1.6,0.2c-1.7,0-2.9-0.5-3.6-1.5c-0.8-1-1.2-2.3-1.2-4
		c0-1.6,0.4-3,1.2-4c0.8-1,1.9-1.5,3.2-1.5c1.4,0,2.5,0.5,3.2,1.5c0.7,1,1,2.2,1,3.8V61H100c0,1.2,0.3,2.1,0.9,2.9
		c0.6,0.8,1.5,1.1,2.6,1.1c0.5,0,1-0.1,1.6-0.2c0.6-0.2,1.1-0.3,1.4-0.5V65.5z M105.8,59.8c0-1-0.2-1.9-0.7-2.6
		c-0.4-0.7-1.1-1.1-2-1.1c-0.9,0-1.7,0.4-2.2,1.1c-0.6,0.8-0.9,1.6-0.9,2.5H105.8z"/>
	<path class="st0" d="M110.3,57.7v-0.7v-0.2c0-0.3,0-0.6,0-0.8c0-0.2-0.1-0.4-0.1-0.5h1.3v2c0.3-0.7,0.7-1.2,1.1-1.6
		c0.5-0.4,1-0.6,1.6-0.6c0.1,0,0.3,0,0.5,0c0.2,0,0.3,0.1,0.4,0.1v1.4c-0.3-0.1-0.6-0.1-1-0.1c-0.9,0-1.6,0.4-2,1.2
		c-0.4,0.8-0.6,1.8-0.6,3v5.2h-1.3V57.7z"/>
	<path class="st0" d="M117.3,64.3c0.4,0.2,0.8,0.4,1.3,0.5c0.5,0.1,0.9,0.2,1.4,0.2c0.7,0,1.2-0.2,1.7-0.5c0.4-0.3,0.7-0.8,0.7-1.4
		c0-0.7-0.4-1.3-1.3-1.8c-0.8-0.4-1.6-0.8-2.4-1.3c-0.9-0.6-1.3-1.3-1.3-2.2c0-1,0.3-1.7,1-2.2c0.7-0.5,1.5-0.7,2.4-0.7
		c0.3,0,0.7,0,1.2,0.1c0.5,0.1,0.9,0.2,1.4,0.4l-0.1,1.1c-0.4-0.2-0.7-0.3-1.1-0.4s-0.8-0.1-1.2-0.1c-0.7,0-1.3,0.1-1.7,0.4
		c-0.4,0.3-0.6,0.7-0.6,1.4c0,0.5,0.6,1.1,1.9,1.7c1.2,0.6,2.1,1.1,2.6,1.5s0.7,1,0.7,2c0,1-0.4,1.8-1.1,2.3
		c-0.8,0.5-1.6,0.7-2.6,0.7c-0.6,0-1.1,0-1.5-0.1c-0.5-0.1-0.9-0.2-1.4-0.4L117.3,64.3z"/>
	<path class="st0" d="M131,55.1c1.6,0,2.8,0.5,3.7,1.6s1.3,2.4,1.3,3.9c0,1.6-0.4,2.9-1.3,3.9c-0.8,1.1-2.1,1.6-3.7,1.6
		c-1.6,0-2.8-0.5-3.7-1.6c-0.8-1.1-1.3-2.4-1.3-3.9c0-1.6,0.4-2.9,1.3-3.9S129.4,55.1,131,55.1z M131,65c1.1,0,2-0.4,2.6-1.2
		c0.6-0.8,0.9-1.9,0.9-3.2c0-1.3-0.3-2.3-0.9-3.2c-0.6-0.8-1.5-1.2-2.6-1.2c-1.1,0-2,0.4-2.6,1.2c-0.6,0.8-0.9,1.9-0.9,3.2
		c0,1.3,0.3,2.3,0.9,3.2C129.1,64.6,129.9,65,131,65z"/>
	<path class="st0" d="M139,57.8v-0.6c0-0.4,0-0.8,0-1.2c0-0.3-0.1-0.6-0.1-0.7h1.3v1.9c0.3-0.6,0.7-1.1,1.2-1.5
		c0.5-0.4,1.2-0.6,2.2-0.6c1.2,0,2.1,0.4,2.7,1.1c0.6,0.7,0.9,1.7,0.9,3v6.8H146v-6.4c0-1.1-0.2-1.9-0.6-2.4s-1-0.8-1.9-0.8
		c-1.1,0-1.9,0.4-2.4,1.2c-0.5,0.8-0.8,1.7-0.8,2.7v5.8H139V57.8z"/>
	<path class="st0" d="M157,64.2c-0.3,0.6-0.8,1.1-1.4,1.4s-1.3,0.5-2,0.5c-1.3,0-2.2-0.3-2.7-1c-0.5-0.6-0.8-1.3-0.8-2
		c0-1.6,0.6-2.6,1.8-3c1.2-0.5,2.8-0.7,4.7-0.7h0.2v-0.5c0-0.9-0.2-1.6-0.6-2c-0.4-0.4-1-0.7-1.8-0.7c-1.2,0-2.2,0.3-3.1,0.9v-1.3
		c0.4-0.2,0.9-0.4,1.5-0.5c0.6-0.1,1.1-0.2,1.6-0.2c1.3,0,2.3,0.3,2.8,0.9c0.6,0.6,0.9,1.6,0.9,3v4.7c0,0.4,0,0.7,0,1.1
		c0,0.3,0,0.7,0.1,1.1H157V64.2z M156.9,60.5h-0.4c-1.9,0-3.2,0.2-3.9,0.7c-0.7,0.4-1,1.1-1,1.9c0,0.6,0.2,1.1,0.6,1.4
		c0.4,0.3,0.9,0.5,1.6,0.5c1,0,1.8-0.3,2.3-0.9c0.5-0.6,0.8-1.6,0.8-2.9V60.5z"/>
	<path class="st0" d="M161.8,50.3h1.3v15.5h-1.3V50.3z"/>
	<path class="st0" d="M173.7,50.3h1.3v6.8c0.2-0.4,0.6-0.9,1.1-1.3c0.6-0.5,1.3-0.7,2.2-0.7c1.5,0,2.6,0.5,3.3,1.5s1.1,2.3,1.1,4
		c0,1.6-0.4,3-1.1,4c-0.7,1-1.8,1.5-3.2,1.5c-1.5,0-2.6-0.6-3.3-1.9l0,1.7h-1.3V50.3z M178.2,56.2c-1.1,0-1.9,0.4-2.4,1.3
		c-0.5,0.9-0.8,1.9-0.8,3.1c0,1.1,0.3,2.2,0.8,3.1c0.5,0.9,1.3,1.3,2.4,1.3c1.1,0,1.9-0.4,2.4-1.3s0.7-1.9,0.7-3.1
		c0-1.2-0.2-2.3-0.7-3.1C180.1,56.6,179.3,56.2,178.2,56.2z"/>
	<path class="st0" d="M185.9,57.7v-0.7v-0.2c0-0.3,0-0.6,0-0.8c0-0.2-0.1-0.4-0.1-0.5h1.3v2c0.3-0.7,0.7-1.2,1.1-1.6
		c0.5-0.4,1-0.6,1.6-0.6c0.1,0,0.3,0,0.5,0c0.2,0,0.3,0.1,0.4,0.1v1.4c-0.3-0.1-0.6-0.1-1-0.1c-0.9,0-1.6,0.4-2,1.2
		c-0.4,0.8-0.6,1.8-0.6,3v5.2h-1.3V57.7z"/>
	<path class="st0" d="M199.3,64.2c-0.3,0.6-0.8,1.1-1.4,1.4c-0.6,0.3-1.3,0.5-2,0.5c-1.3,0-2.2-0.3-2.7-1c-0.5-0.6-0.8-1.3-0.8-2
		c0-1.6,0.6-2.6,1.8-3c1.2-0.5,2.8-0.7,4.7-0.7h0.2v-0.5c0-0.9-0.2-1.6-0.6-2c-0.4-0.4-1-0.7-1.8-0.7c-1.2,0-2.2,0.3-3.1,0.9v-1.3
		c0.4-0.2,0.9-0.4,1.5-0.5s1.1-0.2,1.6-0.2c1.3,0,2.3,0.3,2.8,0.9c0.6,0.6,0.9,1.6,0.9,3v4.7c0,0.4,0,0.7,0,1.1c0,0.3,0,0.7,0.1,1.1
		h-1.3V64.2z M199.1,60.5h-0.4c-1.9,0-3.2,0.2-3.9,0.7c-0.7,0.4-1,1.1-1,1.9c0,0.6,0.2,1.1,0.6,1.4c0.4,0.3,0.9,0.5,1.6,0.5
		c1,0,1.8-0.3,2.3-0.9c0.5-0.6,0.8-1.6,0.8-2.9V60.5z"/>
	<path class="st0" d="M204,57.8v-0.6c0-0.4,0-0.8,0-1.2c0-0.3-0.1-0.6-0.1-0.7h1.3v1.9c0.3-0.6,0.7-1.1,1.2-1.5s1.2-0.6,2.2-0.6
		c1.2,0,2.1,0.4,2.7,1.1c0.6,0.7,0.9,1.7,0.9,3v6.8H211v-6.4c0-1.1-0.2-1.9-0.6-2.4s-1-0.8-1.9-0.8c-1.1,0-1.9,0.4-2.4,1.2
		s-0.8,1.7-0.8,2.7v5.8H204V57.8z"/>
	<path class="st0" d="M224.5,65.9h-1.3v-1.7c-0.4,0.7-0.8,1.2-1.4,1.5s-1.2,0.5-2,0.5c-1.4,0-2.5-0.5-3.2-1.5c-0.8-1-1.1-2.4-1.1-4
		c0-1.7,0.3-3.1,1-4s1.8-1.5,3.3-1.5c0.9,0,1.6,0.2,2.2,0.7c0.6,0.5,0.9,0.9,1.1,1.3l0-6.8h1.3V65.9z M220,65c1,0,1.8-0.4,2.4-1.3
		c0.5-0.9,0.8-1.9,0.8-3.1c0-1.1-0.3-2.2-0.8-3.1s-1.3-1.3-2.4-1.3c-1.1,0-1.9,0.4-2.4,1.3c-0.5,0.9-0.7,1.9-0.7,3.1
		c0,1.2,0.2,2.3,0.7,3.1C218.1,64.6,218.9,65,220,65z"/>
	<path class="st0" d="M229.4,52.5h-1.3v-1.7h1.3V52.5z M228.1,55.3h1.3v10.6h-1.3V55.3z"/>
	<path class="st0" d="M233.2,57.8v-0.6c0-0.4,0-0.8,0-1.2c0-0.3-0.1-0.6-0.1-0.7h1.3v1.9c0.3-0.6,0.7-1.1,1.2-1.5
		c0.5-0.4,1.2-0.6,2.2-0.6c1.2,0,2.1,0.4,2.7,1.1c0.6,0.7,0.9,1.7,0.9,3v6.8h-1.3v-6.4c0-1.1-0.2-1.9-0.6-2.4s-1-0.8-1.9-0.8
		c-1.1,0-1.9,0.4-2.4,1.2c-0.5,0.8-0.8,1.7-0.8,2.7v5.8h-1.3V57.8z"/>
	<path class="st0" d="M253.6,65c0,1.6-0.4,2.9-1.2,3.9s-2,1.5-3.8,1.5c-0.6,0-1.1,0-1.6-0.1s-1-0.2-1.6-0.4l0.1-1.3
		c0.4,0.2,0.9,0.4,1.5,0.5c0.6,0.1,1.1,0.2,1.6,0.2c1.5,0,2.5-0.5,3-1.4c0.5-0.9,0.7-2.3,0.7-4.1c-0.4,0.7-0.8,1.3-1.3,1.6
		c-0.5,0.3-1.2,0.5-1.9,0.5c-1.5,0-2.7-0.5-3.4-1.6s-1.1-2.3-1.1-3.7c0-1.7,0.3-3.1,1-4s1.8-1.5,3.3-1.5c0.8,0,1.4,0.1,1.9,0.3
		s1,0.6,1.4,1.2l0-1.2h1.3V65z M249,64.8c1.1,0,1.9-0.4,2.4-1.2c0.5-0.8,0.8-1.8,0.8-2.9c0-1.4-0.2-2.5-0.7-3.3s-1.3-1.2-2.4-1.2
		c-1.1,0-1.9,0.4-2.4,1.3c-0.5,0.9-0.7,1.9-0.7,3.1c0,1.2,0.2,2.1,0.7,3S248,64.8,249,64.8z"/>
</g>
<g>
	<path class="st0" d="M32.8,41.2h-4.2L21,17h-0.1l-7.6,24.3H9l-9-28h3.8l7.4,24.3h0.1l7.8-24.3h4.2l7.4,24.3h0.1l7.8-24.3H42
		L32.8,41.2z"/>
	<path class="st0" d="M66.3,40.4c-1.2,0.5-2.5,0.9-4,1.2c-1.5,0.3-2.8,0.4-4.1,0.4c-2.3,0-4.3-0.4-5.9-1.1c-1.6-0.7-3-1.8-4-3.1
		c-1-1.3-1.7-2.9-2.2-4.7c-0.5-1.8-0.7-3.7-0.7-5.8c0-2.1,0.3-4.1,0.9-5.9c0.6-1.8,1.4-3.4,2.4-4.6c1-1.3,2.3-2.3,3.7-3
		c1.5-0.7,3.1-1.1,4.8-1.1c2,0,3.7,0.4,5.1,1.1c1.4,0.8,2.6,1.8,3.5,3c0.9,1.3,1.6,2.7,2,4.4c0.4,1.7,0.6,3.5,0.6,5.3v1.8H49.2
		c0,1.5,0.2,2.9,0.6,4.2c0.4,1.3,1,2.4,1.8,3.4s1.7,1.7,2.9,2.3c1.2,0.6,2.5,0.9,4,0.9c0.6,0,1.3-0.1,2.1-0.2
		c0.8-0.1,1.5-0.3,2.2-0.5c0.7-0.2,1.4-0.4,2-0.7c0.6-0.3,1.2-0.5,1.6-0.8V40.4z M64.6,25.2c0-1.2-0.1-2.4-0.4-3.6
		c-0.3-1.2-0.7-2.2-1.2-3.1c-0.6-0.9-1.3-1.7-2.2-2.2c-0.9-0.5-2-0.8-3.3-0.8c-1.3,0-2.4,0.3-3.4,0.9c-1,0.6-1.9,1.3-2.6,2.3
		c-0.7,0.9-1.3,2-1.6,3.1c-0.4,1.2-0.6,2.3-0.6,3.5H64.6z"/>
	<path class="st0" d="M75.9,19.5c0-0.8,0-1.4,0-2c0-0.6,0-1.1,0-1.5c0-0.5,0-0.9-0.1-1.3c0-0.4-0.1-0.9-0.1-1.4h3.5v5.4h0.1
		c0.3-0.8,0.7-1.5,1.2-2.3c0.4-0.7,1-1.4,1.6-2c0.6-0.6,1.3-1,2-1.3c0.8-0.3,1.6-0.5,2.4-0.5c0.4,0,0.8,0,1.3,0.1
		c0.5,0.1,0.8,0.1,1.1,0.2v3.6c-0.7-0.2-1.6-0.3-2.5-0.3c-1.4,0-2.5,0.3-3.4,1c-0.9,0.7-1.6,1.6-2.1,2.7c-0.5,1.1-0.9,2.3-1.1,3.6
		c-0.2,1.3-0.3,2.6-0.3,3.9v13.9h-3.5V19.5z"/>
	<path class="st0" d="M117,41.2h-3.5v-4.5h-0.1c-1,1.8-2.1,3.1-3.6,3.9s-3.2,1.2-5.2,1.2c-1.9,0-3.6-0.4-5.1-1.1
		C98.2,40,97,39,96,37.7c-1-1.3-1.7-2.9-2.2-4.6c-0.5-1.8-0.7-3.7-0.7-5.8c0-2.1,0.2-4.1,0.6-5.9c0.4-1.8,1.1-3.3,2-4.6
		c0.9-1.3,2.1-2.3,3.6-3.1c1.5-0.7,3.2-1.1,5.3-1.1c1.4,0,2.6,0.2,3.6,0.7c1,0.4,1.9,1,2.6,1.5c0.7,0.6,1.3,1.2,1.7,1.8
		c0.4,0.6,0.7,1.1,0.8,1.4h0.1V0h3.5V41.2z M97.3,31.4c0.2,1.4,0.7,2.6,1.3,3.8c0.6,1.1,1.5,2,2.6,2.8c1.1,0.7,2.4,1.1,4.1,1.1
		c1.5,0,2.8-0.4,3.9-1.1c1.1-0.7,1.9-1.7,2.6-2.8c0.6-1.2,1.1-2.4,1.4-3.8c0.3-1.4,0.4-2.7,0.4-4c0-1.3-0.1-2.6-0.4-4
		c-0.3-1.4-0.8-2.6-1.4-3.8c-0.6-1.2-1.5-2.1-2.6-2.8c-1.1-0.7-2.4-1.1-3.9-1.1c-1.6,0-3,0.4-4.1,1.1c-1.1,0.7-1.9,1.6-2.6,2.8
		c-0.6,1.1-1.1,2.4-1.3,3.8c-0.2,1.4-0.4,2.8-0.4,4.1C96.9,28.6,97.1,30,97.3,31.4z"/>
	<path class="st0" d="M145.5,40.4c-1.2,0.5-2.5,0.9-4,1.2c-1.5,0.3-2.8,0.4-4.1,0.4c-2.3,0-4.3-0.4-5.9-1.1c-1.6-0.7-3-1.8-4-3.1
		c-1-1.3-1.7-2.9-2.2-4.7c-0.5-1.8-0.7-3.7-0.7-5.8c0-2.1,0.3-4.1,0.9-5.9c0.6-1.8,1.4-3.4,2.4-4.6c1-1.3,2.3-2.3,3.7-3
		c1.5-0.7,3.1-1.1,4.8-1.1c2,0,3.7,0.4,5.1,1.1c1.4,0.8,2.6,1.8,3.5,3c0.9,1.3,1.6,2.7,2,4.4c0.4,1.7,0.6,3.5,0.6,5.3v1.8h-19.2
		c0,1.5,0.2,2.9,0.6,4.2c0.4,1.3,1,2.4,1.8,3.4s1.7,1.7,2.9,2.3c1.2,0.6,2.5,0.9,4,0.9c0.6,0,1.3-0.1,2.1-0.2
		c0.8-0.1,1.5-0.3,2.2-0.5c0.7-0.2,1.4-0.4,2-0.7c0.6-0.3,1.2-0.5,1.6-0.8V40.4z M143.8,25.2c0-1.2-0.1-2.4-0.4-3.6
		c-0.3-1.2-0.7-2.2-1.2-3.1c-0.6-0.9-1.3-1.7-2.2-2.2c-0.9-0.5-2-0.8-3.3-0.8c-1.3,0-2.4,0.3-3.4,0.9c-1,0.6-1.9,1.3-2.6,2.3
		c-0.7,0.9-1.3,2-1.6,3.1c-0.4,1.2-0.6,2.3-0.6,3.5H143.8z"/>
	<path class="st0" d="M183.9,41.2h-4.2L172.1,17H172l-7.6,24.3h-4.2l-9-28h3.8l7.4,24.3h0.1l7.8-24.3h4.2l7.4,24.3h0.1l7.8-24.3h3.5
		L183.9,41.2z"/>
	<path class="st0" d="M217.5,40.4c-1.2,0.5-2.5,0.9-4,1.2c-1.5,0.3-2.8,0.4-4.1,0.4c-2.3,0-4.3-0.4-5.9-1.1c-1.6-0.7-3-1.8-4-3.1
		c-1-1.3-1.7-2.9-2.2-4.7c-0.5-1.8-0.7-3.7-0.7-5.8c0-2.1,0.3-4.1,0.9-5.9c0.6-1.8,1.4-3.4,2.4-4.6c1-1.3,2.3-2.3,3.7-3
		c1.5-0.7,3.1-1.1,4.8-1.1c2,0,3.7,0.4,5.1,1.1c1.4,0.8,2.6,1.8,3.5,3c0.9,1.3,1.6,2.7,2,4.4c0.4,1.7,0.6,3.5,0.6,5.3v1.8h-19.2
		c0,1.5,0.2,2.9,0.6,4.2c0.4,1.3,1,2.4,1.8,3.4c0.8,1,1.7,1.7,2.9,2.3c1.2,0.6,2.5,0.9,4,0.9c0.6,0,1.3-0.1,2.1-0.2
		c0.8-0.1,1.5-0.3,2.2-0.5c0.7-0.2,1.4-0.4,2-0.7c0.6-0.3,1.2-0.5,1.6-0.8V40.4z M215.7,25.2c0-1.2-0.1-2.4-0.4-3.6
		c-0.3-1.2-0.7-2.2-1.2-3.1c-0.6-0.9-1.3-1.7-2.2-2.2c-0.9-0.5-2-0.8-3.3-0.8c-1.3,0-2.4,0.3-3.4,0.9c-1,0.6-1.9,1.3-2.6,2.3
		c-0.7,0.9-1.3,2-1.7,3.1c-0.4,1.2-0.6,2.3-0.6,3.5H215.7z"/>
	<path class="st0" d="M227.1,0h3.5v41.2h-3.5V0z"/>
	<path class="st0" d="M252.3,16.2h-6.4v18.1c0,1.3,0.3,2.4,0.8,3.3c0.5,0.9,1.5,1.3,2.9,1.3c0.7,0,1.2-0.1,1.7-0.2
		c0.5-0.1,1-0.3,1.5-0.5l0.2,2.9c-0.4,0.2-1,0.4-1.8,0.5c-0.8,0.2-1.6,0.2-2.4,0.2c-1.5,0-2.7-0.2-3.6-0.7c-0.9-0.5-1.5-1.2-1.9-2
		c-0.4-0.8-0.7-1.8-0.7-3s-0.1-2.3-0.1-3.6V16.2h-5.5v-3h5.5V6.4l3.5-1.2v8h6.4V16.2z"/>
</g>
<path class="st0" d="M292.2,26.4c2.8,3.7,1,4.8-0.2,5c-1.2,0.2-3.7-0.8-2.6-4.7c-2.1-0.1-4-0.7-4.9-1.8l5.1,11.5l0.3,0.7l0,0
	c1,0.6,3.6,0.9,6.6,0.9V21.4C296.4,24.2,294.5,25.8,292.2,26.4z M263.6,0.3v65.6h65.6V0.3H263.6z M316.1,35
	c0,12.9-18.1,21.1-18.8,21.4c-0.2,0.1-0.5,0.2-0.8,0.2s-0.6-0.1-0.8-0.2c-0.8-0.3-18.8-8.5-18.8-21.4V11.5c0-1.1,0.9-2,2-2h35.3
	c1.1,0,2,0.9,2,2V35z M296.4,21.4c0,2.8,1.9,4.4,4.3,5c-2.8,3.7-1,4.8,0.2,5c1.2,0.2,3.7-0.8,2.6-4.7c2.1-0.1,4-0.7,4.9-1.8
	l-5.1,11.5l-0.3,0.7l0,0c-1,0.6-3.6,0.9-6.6,0.9v12.3c1.6-0.8,4.1-2.3,6.5-4.2c3.3-2.6,7.2-6.6,7.2-11V15.4h-13.7V21.4z"/>
<g>
</g>
<g>
</g>
<g>
</g>
<g>
</g>
<g>
</g>
<g>
</g>
</svg>
