<?xml version="1.0" encoding="utf-8"?>
<!-- Generator: Adobe Illustrator 20.0.0, SVG Export Plug-In . SVG Version: 6.00 Build 0)  -->
<svg version="1.1" id="Ebene_1" xmlns="http://www.w3.org/2000/svg" xmlns:xlink="http://www.w3.org/1999/xlink" x="0px" y="0px"
	 viewBox="0 0 248.2 248.2" style="enable-background:new 0 0 248.2 248.2;" xml:space="preserve">
<style type="text/css">
	.st0{fill:#E74C3C;}
	.st1{fill:#FFFFFF;}
</style>
<rect class="st0" width="248.2" height="248.2"/>
<g>
	<path class="st1" d="M112.6,69.3c0-1.5,0.6-2.9,1.6-4l30-30c2.1-2.1,5.8-2.1,7.9,0c2.2,2.2,2.2,5.8,0,7.9l-20.4,20.4h29.6
		c25,0,45.3,20.3,45.3,45.3c0,23.6-23.7,42.3-40,43.8c-2.3,0-5-1.9-4.4-6.4c0.8-2.9,6.5-4.2,6.9-4.3c15-3.6,26.3-17.1,26.3-33.2
		c0-18.8-15.3-34.1-34.1-34.1h-29.6l20.4,20.4c2.2,2.2,2.2,5.8,0,7.9c-2.1,2.1-5.8,2.1-7.9,0l-30-30
		C113.2,72.3,112.6,70.8,112.6,69.3z M113.4,152.7H97.5l16.9,16.9H84.8c-18.8,0-34.1-15.3-34.1-34.1c0-5.5,1.3-10.7,3.7-15.3
		c-0.4-1-0.7-2-1.1-2.9c-1-3.2-1.6-6.5-1.9-9.9c-7,7.6-12,17.3-12,28.1c0,25,20.3,45.3,45.3,45.3h29.6L94,201.2
		c-2.2,2.2-2.2,5.8,0,7.9c2.1,2.1,5.8,2.1,7.9,0l30-30c1.1-1.1,1.6-2.5,1.6-4c0-1.5-0.6-2.9-1.6-4L113.4,152.7z M139,129.4
		c4.1-5.6,6.7-11.9,7.9-18.4c-4.8-3.8-9.1-8.1-13-12.7c1.5,9.5-1.4,19.5-8.7,26.8c-12.1,12.1-31.9,12.1-44,0
		c-12.1-12.1-12.1-31.9,0-44c7.2-7.2,16.9-10,26.2-8.7c0.6-4.9,2.2-9.5,6-12.2c-13.6-3.6-31.3,1.1-41.7,11.5
		c-17.3,17.3-17.3,45.5,0,62.9c15.7,15.7,40.4,17.1,57.8,4.3l55.8,55.8c2.6,2.6,6.8,2.6,9.4,0c2.6-2.6,2.6-6.8,0-9.4L139,129.4z"/>
</g>
</svg>
