<?xml version="1.0" encoding="utf-8"?>
<!-- Generator: Adobe Illustrator 19.1.0, SVG Export Plug-In . SVG Version: 6.00 Build 0)  -->
<svg version="1.1" id="Ebene_1" xmlns="http://www.w3.org/2000/svg" xmlns:xlink="http://www.w3.org/1999/xlink" x="0px" y="0px"
	 viewBox="0 0 248.2 248.2" style="enable-background:new 0 0 248.2 248.2;" xml:space="preserve">
<style type="text/css">
	.st0{fill:#3498DB;}
	.st1{fill:#FFFFFF;}
</style>
<rect class="st0" width="248.2" height="248.2"/>
<g>
	<path class="st1" d="M201.1,83.2c-0.1-1.4-1-2.5-2.3-3c-1.3-0.5-2.7-0.1-3.7,0.8l-19.6,19.6l-21.8-6.9L146.9,72l19.6-19.6
		c1-1,1.3-2.4,0.8-3.7c-0.5-1.3-1.6-2.2-3-2.3c-11.9-1-23.6,3.2-32,11.7c-11.6,11.6-14.6,28.4-9.2,42.8c-0.6,0.5-1.2,1-1.8,1.6
		l-65.5,61.8c0,0,0,0-0.1,0.1c-7.7,7.7-7.7,20.2,0,27.9c7.7,7.7,20.1,7.6,27.8-0.1c0,0,0.1-0.1,0.1-0.1l61.3-66
		c0.6-0.6,1.1-1.1,1.6-1.8c14.4,5.4,31.3,2.4,42.9-9.2C197.9,106.8,202.2,95.1,201.1,83.2z M73.8,184c-2.8,2.8-7.4,2.8-10.3,0
		c-2.8-2.8-2.8-7.4,0-10.3c2.8-2.8,7.4-2.8,10.3,0C76.7,176.6,76.7,181.2,73.8,184z"/>
</g>
</svg>
