<?xml version="1.0" encoding="utf-8"?>
<!-- Generator: Adobe Illustrator 21.0.2, SVG Export Plug-In . SVG Version: 6.00 Build 0)  -->
<svg version="1.1" id="Capa_1" xmlns="http://www.w3.org/2000/svg" xmlns:xlink="http://www.w3.org/1999/xlink" x="0px" y="0px"
	 viewBox="0 0 56 56" style="enable-background:new 0 0 56 56;" xml:space="preserve">
<style type="text/css">
	.st0{fill:#E9E9E0;}
	.st1{fill:#D9D7CA;}
	.st2{fill:#9777A8;}
	.st3{fill:#FFFFFF;}
	.st4{fill:#C8BDB8;}
</style>
<g>
	<path class="st0" d="M37,0H8C7.2,0,6.5,0.7,6.5,1.9V55c0,0.3,0.7,1,1.5,1H48c0.8,0,1.5-0.7,1.5-1V13c0-0.7-0.1-0.9-0.3-1.1
		L37.6,0.3C37.4,0.1,37.2,0,37,0z"/>
	<polygon class="st1" points="37.5,0.2 37.5,12 49.3,12 	"/>
	<path class="st2" d="M48,56H8c-0.8,0-1.5-0.7-1.5-1.5V39h43v15.5C49.5,55.3,48.8,56,48,56z"/>
	<g>
		<path class="st3" d="M39.2,50.2c0,0.4-0.1,0.7-0.2,1.1c-0.2,0.3-0.4,0.6-0.6,0.9c-0.3,0.3-0.6,0.5-1,0.6c-0.4,0.2-0.9,0.2-1.4,0.2
			c-0.2,0-0.4,0-0.7,0c-0.2,0-0.5-0.1-0.7-0.1c-0.2-0.1-0.5-0.1-0.7-0.2s-0.4-0.2-0.6-0.3l0.3-1.2c0.1,0.1,0.3,0.1,0.5,0.2
			c0.2,0.1,0.4,0.1,0.6,0.2s0.4,0.1,0.6,0.1s0.4,0.1,0.6,0.1c0.6,0,1-0.1,1.3-0.4c0.3-0.3,0.4-0.6,0.4-1.2c0-0.3-0.1-0.6-0.3-0.8
			s-0.5-0.4-0.8-0.6s-0.7-0.4-1-0.5s-0.7-0.4-1-0.6s-0.6-0.5-0.8-0.9s-0.3-0.7-0.3-1.2c0-0.4,0.1-0.8,0.2-1.2
			c0.2-0.3,0.4-0.6,0.7-0.9s0.6-0.4,1-0.6c0.4-0.1,0.8-0.2,1.2-0.2c0.4,0,0.8,0,1.3,0.1c0.4,0.1,0.8,0.2,1,0.4
			c-0.1,0.1-0.1,0.2-0.2,0.4c-0.1,0.1-0.1,0.3-0.2,0.4s-0.1,0.2-0.2,0.3c0,0.1-0.1,0.1-0.1,0.1c-0.1,0-0.1-0.1-0.2-0.1
			s-0.2-0.1-0.3-0.1c-0.1,0-0.3-0.1-0.5-0.1c-0.2,0-0.5,0-0.8,0c-0.2,0-0.4,0.1-0.5,0.2s-0.3,0.2-0.4,0.3c-0.1,0.1-0.2,0.3-0.3,0.4
			C35,45.2,35,45.4,35,45.5c0,0.4,0.1,0.7,0.3,0.9s0.5,0.4,0.8,0.6c0.3,0.2,0.6,0.3,1,0.5c0.4,0.2,0.7,0.4,1,0.6
			c0.3,0.2,0.6,0.5,0.8,0.9S39.2,49.7,39.2,50.2z"/>
		<path class="st3" d="M27.2,52.8h-1.6V42.8h2.9c0.4,0,0.9,0.1,1.3,0.2s0.8,0.3,1.1,0.6c0.3,0.3,0.6,0.6,0.8,1s0.3,0.8,0.3,1.3
			c0,0.5-0.1,1-0.3,1.4s-0.4,0.8-0.7,1s-0.7,0.5-1.1,0.7s-0.9,0.2-1.4,0.2h-1.2L27.2,52.8L27.2,52.8z M27.2,44v4h1.5
			c0.2,0,0.4,0,0.6-0.1c0.2-0.1,0.4-0.2,0.5-0.3s0.3-0.4,0.4-0.6s0.1-0.6,0.1-1c0-0.2,0-0.4-0.1-0.6c0-0.2-0.1-0.4-0.3-0.6
			c-0.1-0.2-0.3-0.4-0.6-0.5s-0.6-0.2-1-0.2L27.2,44L27.2,44z"/>
		<path class="st3" d="M18,44v3.2h4.1v1.1H18v3.3h4.6v1.2h-6.2V42.8h6.2V44H18z"/>
	</g>
	<path class="st4" d="M45.5,22v-6h-6v2h-6v-4h-10v4h-6v-2h-6v6h6v-2H21c-4.6,2.6-7.5,7.6-7.5,13c0,0.6,0.4,1,1,1s1-0.4,1-1
		c0-5.2,3.2-10,8-12v3h10v-3c4.8,2,8,6.8,8,12c0,0.6,0.4,1,1,1s1-0.4,1-1c0-5.4-3-10.4-7.5-13h3.5v2H45.5z M15.5,20h-2v-2h2V20z
		 M31.5,22h-6v-3.8V16h6v2.2V22z M41.5,18h2v2h-2V18z"/>
</g>
</svg>
