<?xml version="1.0" encoding="utf-8"?>
<!-- Generator: Adobe Illustrator 21.0.2, SVG Export Plug-In . SVG Version: 6.00 Build 0)  -->
<svg version="1.1" id="Capa_1" xmlns="http://www.w3.org/2000/svg" xmlns:xlink="http://www.w3.org/1999/xlink" x="0px" y="0px"
	 viewBox="0 0 56 56" style="enable-background:new 0 0 56 56;" xml:space="preserve">
<style type="text/css">
	.st0{fill:#E9E9E0;}
	.st1{fill:#D9D7CA;}
	.st2{fill:#4FA371;}
	.st3{fill:#FFFFFF;}
	.st4{fill:#C8BDB8;}
</style>
<g>
	<g>
		<path class="st0" d="M37,0H8C7.2,0,6.5,0.7,6.5,1.9V55c0,0.3,0.7,1,1.5,1H48c0.8,0,1.5-0.7,1.5-1V13c0-0.7-0.1-0.9-0.3-1.1
			L37.6,0.3C37.4,0.1,37.2,0,37,0z"/>
		<polygon class="st1" points="37.5,0.2 37.5,12 49.3,12 		"/>
		<path class="st2" d="M48,56H8c-0.8,0-1.5-0.7-1.5-1.5V39h43v15.5C49.5,55.3,48.8,56,48,56z"/>
		<g>
			<g>
				<path class="st3" d="M35.3,42.9v1.3l-4.8,7.2l-0.3,0.2h5.1V53h-6.7v-1.3l4.8-7.2l0.3-0.2h-5.1v-1.3H35.3z"/>
			</g>
			<g>
				<path class="st3" d="M26.6,42.9v0.9l-4.5,9.5h-1.5l4.5-9.2v0h-5.1v-1.2H26.6z"/>
			</g>
		</g>
		<g>
			<path class="st4" d="M28.5,24v-2h2v-2h-2v-2h2v-2h-2v-2h2v-2h-2v-2h2V8h-2V6h-2v2h-2v2h2v2h-2v2h2v2h-2v2h2v2h-2v2h2v2h-4v5
				c0,2.8,2.2,5,5,5s5-2.2,5-5v-5H28.5z M30.5,29c0,1.7-1.3,3-3,3s-3-1.3-3-3v-3h6V29z"/>
			<path class="st4" d="M26.5,30h2c0.6,0,1-0.4,1-1s-0.4-1-1-1h-2c-0.6,0-1,0.4-1,1S25.9,30,26.5,30z"/>
		</g>
	</g>
</g>
</svg>
