<?xml version="1.0" encoding="utf-8"?>
<!-- Generator: Adobe Illustrator 21.0.2, SVG Export Plug-In . SVG Version: 6.00 Build 0)  -->
<svg version="1.1" id="Capa_1" xmlns="http://www.w3.org/2000/svg" xmlns:xlink="http://www.w3.org/1999/xlink" x="0px" y="0px"
	 viewBox="0 0 56 56" style="enable-background:new 0 0 56 56;" xml:space="preserve">
<style type="text/css">
	.st0{fill:#E9E9E0;}
	.st1{fill:#D9D7CA;}
	.st2{fill:#F3D55B;}
	.st3{fill:#FCB960;}
	.st4{fill:#F29C1F;}
	.st5{fill:#FFFFFF;}
</style>
<g>
	<path class="st0" d="M37,0H8C7.2,0,6.5,0.7,6.5,1.9V55c0,0.3,0.7,1,1.5,1H48c0.8,0,1.5-0.7,1.5-1V13c0-0.7-0.1-0.9-0.3-1.1
		L37.6,0.3C37.4,0.1,37.2,0,37,0z"/>
	<polygon class="st1" points="37.5,0.2 37.5,12 49.3,12 	"/>
	<circle class="st2" cx="18.9" cy="14.4" r="4.6"/>
	<polygon class="st3" points="6.5,39 17.5,39 49.5,39 49.5,28 39.5,18.5 29,30 23.5,24.5 	"/>
	<path class="st4" d="M48,56H8c-0.8,0-1.5-0.7-1.5-1.5V39h43v15.5C49.5,55.3,48.8,56,48,56z"/>
	<g>
		<path class="st5" d="M37,52.9h-1.6V42.9h2.9c0.4,0,0.9,0.1,1.3,0.2c0.4,0.1,0.8,0.3,1.1,0.6c0.3,0.3,0.6,0.6,0.8,1
			s0.3,0.8,0.3,1.3c0,0.5-0.1,1-0.3,1.4s-0.4,0.8-0.7,1c-0.3,0.3-0.7,0.5-1.1,0.7s-0.9,0.2-1.4,0.2H37L37,52.9L37,52.9z M37,44.1v4
			h1.5c0.2,0,0.4,0,0.6-0.1c0.2-0.1,0.4-0.2,0.5-0.3s0.3-0.4,0.4-0.6c0.1-0.3,0.1-0.6,0.1-1c0-0.2,0-0.4-0.1-0.6
			c0-0.2-0.1-0.4-0.3-0.6c-0.1-0.2-0.3-0.4-0.6-0.5c-0.3-0.1-0.6-0.2-1-0.2H37z"/>
		<path class="st5" d="M31.1,42.9h1.7v10.1h-1.7V46l-2.3,5.6h-1.4L25.1,46v6.9h-1.7V42.9h1.7l3,6.9L31.1,42.9z"/>
		<path class="st5" d="M19.1,47.6c0.2,0,0.4,0.1,0.7,0.2s0.5,0.3,0.7,0.5s0.4,0.4,0.5,0.7s0.2,0.6,0.2,1c0,0.5-0.1,0.8-0.2,1.2
			s-0.3,0.6-0.5,0.8s-0.4,0.4-0.7,0.5c-0.2,0.1-0.5,0.2-0.7,0.3c-0.2,0.1-0.4,0.1-0.6,0.1c-0.2,0-0.3,0-0.3,0h-3.8V42.9h2.9
			c0.4,0,0.8,0,1.2,0.2c0.4,0.1,0.8,0.3,1.1,0.5s0.6,0.5,0.7,0.9c0.2,0.4,0.3,0.8,0.3,1.3c0,0.3,0,0.5-0.1,0.8S20.2,46.8,20,47
			s-0.3,0.3-0.5,0.4S19.2,47.6,19.1,47.6z M17.2,47.2c0.2,0,0.4,0,0.6,0c0.2,0,0.4-0.1,0.6-0.2c0.2-0.1,0.3-0.2,0.4-0.5
			S19,46,19,45.6c0-0.2,0-0.3-0.1-0.5c0-0.2-0.1-0.3-0.3-0.5s-0.3-0.3-0.6-0.4c-0.3-0.1-0.6-0.1-1-0.1h-1.1v3.1H16L17.2,47.2
			L17.2,47.2z M18,51.7c0.5,0,0.9-0.2,1.1-0.5s0.4-0.7,0.4-1.2c0-0.5-0.1-0.9-0.4-1.2c-0.3-0.3-0.7-0.5-1.2-0.5h-1.9v3.5H18z"/>
	</g>
</g>
</svg>
