<?xml version="1.0" encoding="utf-8"?>
<!-- Generator: Adobe Illustrator 21.0.2, SVG Export Plug-In . SVG Version: 6.00 Build 0)  -->
<svg version="1.1" id="Capa_1" xmlns="http://www.w3.org/2000/svg" xmlns:xlink="http://www.w3.org/1999/xlink" x="0px" y="0px"
	 viewBox="0 0 56 56" style="enable-background:new 0 0 56 56;" xml:space="preserve">
<style type="text/css">
	.st0{fill:#E9E9E0;}
	.st1{fill:#D9D7CA;}
	.st2{fill:#F3D55B;}
	.st3{fill:#B72727;}
	.st4{fill:#9E1515;}
	.st5{fill:#FFFFFF;}
</style>
<g>
	<path class="st0" d="M37,0H8C7.2,0,6.5,0.7,6.5,1.9V55c0,0.3,0.7,1,1.5,1H48c0.8,0,1.5-0.7,1.5-1V13c0-0.7-0.1-0.9-0.3-1.1
		L37.6,0.3C37.4,0.1,37.2,0,37,0z"/>
	<polygon class="st1" points="37.5,0.2 37.5,12 49.3,12 	"/>
	<circle class="st2" cx="18.9" cy="14.4" r="4.6"/>
	<polygon class="st3" points="6.5,39 17.5,39 49.5,39 49.5,28 39.5,18.5 29,30 23.5,24.5 	"/>
	<path class="st4" d="M48,56H8c-0.8,0-1.5-0.7-1.5-1.5V39h43v15.5C49.5,55.3,48.8,56,48,56z"/>
	<g>
		<g>
			<path class="st5" d="M24.9,47.7v3.9c-0.2,0.3-0.4,0.5-0.7,0.6s-0.5,0.3-0.8,0.4s-0.6,0.2-0.9,0.2c-0.3,0-0.6,0.1-0.9,0.1
				c-0.6,0-1.2-0.1-1.7-0.3s-0.9-0.5-1.3-1s-0.7-1-0.9-1.6s-0.3-1.4-0.3-2.2s0.1-1.6,0.3-2.2c0.2-0.6,0.5-1.2,0.9-1.6
				c0.4-0.4,0.8-0.8,1.3-1c0.5-0.2,1.1-0.3,1.7-0.3c0.5,0,1.1,0.1,1.5,0.3c0.5,0.2,0.9,0.5,1.3,0.8l-1.1,1c-0.2-0.3-0.5-0.5-0.8-0.6
				c-0.3-0.1-0.6-0.2-0.9-0.2c-0.3,0-0.7,0.1-1,0.2c-0.3,0.1-0.6,0.3-0.8,0.6c-0.2,0.3-0.4,0.7-0.6,1.2S19,47.1,19,47.8
				c0,0.7,0.1,1.3,0.2,1.8s0.3,0.9,0.5,1.2s0.5,0.6,0.8,0.7c0.3,0.2,0.6,0.2,0.9,0.2c0.1,0,0.2,0,0.4,0c0.2,0,0.3,0,0.5-0.1
				c0.2,0,0.3-0.1,0.5-0.1s0.3-0.1,0.3-0.2v-2.5h-1.7v-1.1L24.9,47.7L24.9,47.7z"/>
		</g>
		<path class="st5" d="M35,44.1v3.2h4.2v1.1H35v4.5h-1.7V42.8h6.3v1.2H35z"/>
		<path class="st5" d="M29.9,52.9h-1.7V42.8h1.7V52.9z"/>
	</g>
</g>
</svg>
