<?xml version="1.0" encoding="utf-8"?>
<!-- Generator: Adobe Illustrator 21.0.2, SVG Export Plug-In . SVG Version: 6.00 Build 0)  -->
<svg version="1.1" id="Capa_1" xmlns="http://www.w3.org/2000/svg" xmlns:xlink="http://www.w3.org/1999/xlink" x="0px" y="0px"
	 viewBox="0 0 56 56" style="enable-background:new 0 0 56 56;" xml:space="preserve">
<style type="text/css">
	.st0{fill:#E9E9E0;}
	.st1{fill:#D9D7CA;}
	.st2{fill:#90BAE1;}
	.st3{fill:#C8BDB8;}
	.st4{fill:#FFFFFF;}
</style>
<g>
	<path class="st0" d="M37,0H8C7.2,0,6.5,0.7,6.5,1.9V55c0,0.3,0.7,1,1.5,1H48c0.8,0,1.5-0.7,1.5-1V13c0-0.7-0.1-0.9-0.3-1.1
		L37.6,0.3C37.4,0.1,37.2,0,37,0z"/>
	<polygon class="st1" points="37.5,0.2 37.5,12 49.3,12 	"/>
	<path class="st2" d="M48,56H8c-0.8,0-1.5-0.7-1.5-1.5V39h43v15.5C49.5,55.3,48.8,56,48,56z"/>
	<g>
		<path class="st3" d="M28.5,24v-2h2v-2h-2v-2h2v-2h-2v-2h2v-2h-2v-2h2V8h-2V6h-2v2h-2v2h2v2h-2v2h2v2h-2v2h2v2h-2v2h2v2h-4v5
			c0,2.8,2.2,5,5,5s5-2.2,5-5v-5H28.5z M30.5,29c0,1.7-1.3,3-3,3s-3-1.3-3-3v-3h6V29z"/>
		<path class="st3" d="M26.5,30h2c0.6,0,1-0.4,1-1s-0.4-1-1-1h-2c-0.6,0-1,0.4-1,1S25.9,30,26.5,30z"/>
	</g>
</g>
<g>
	<path class="st4" d="M24.2,52.5l3.5-10.1h1.6l3.5,10.1h-1.7l-0.7-2.1h-3.8l-0.7,2.1H24.2z M27,49.3h3L28.5,45L27,49.3z"/>
	<path class="st4" d="M21.2,52.5l-1.9-3.7c0,0-0.1,0-0.1,0c0,0-0.1,0-0.2,0s-0.2,0-0.4,0c-0.2,0-0.5,0-0.8,0v3.6h-1.6V42.5H19
		c0.4,0,0.9,0.1,1.3,0.2c0.4,0.1,0.8,0.3,1.1,0.6s0.6,0.6,0.8,1c0.2,0.4,0.3,0.8,0.3,1.3c0,0.7-0.2,1.3-0.5,1.9
		c-0.3,0.5-0.8,0.9-1.4,1.1l2.3,4H21.2z M17.8,47.7h1.5c0.2,0,0.4,0,0.6-0.1c0.2-0.1,0.4-0.2,0.5-0.3s0.3-0.4,0.4-0.6
		c0.1-0.3,0.2-0.6,0.2-1c0-0.2,0-0.4-0.1-0.6c0-0.2-0.1-0.4-0.3-0.6c-0.1-0.2-0.3-0.4-0.6-0.5c-0.3-0.1-0.6-0.2-1-0.2h-1.2V47.7z"/>
	<path class="st4" d="M39.4,52.5l-1.9-3.7c0,0-0.1,0-0.1,0c0,0-0.1,0-0.2,0s-0.2,0-0.4,0c-0.2,0-0.5,0-0.8,0v3.6h-1.6V42.5h2.9
		c0.4,0,0.9,0.1,1.3,0.2c0.4,0.1,0.8,0.3,1.1,0.6s0.6,0.6,0.8,1c0.2,0.4,0.3,0.8,0.3,1.3c0,0.7-0.2,1.3-0.5,1.9
		c-0.3,0.5-0.8,0.9-1.4,1.1l2.3,4H39.4z M35.9,47.7h1.5c0.2,0,0.4,0,0.6-0.1c0.2-0.1,0.4-0.2,0.5-0.3s0.3-0.4,0.4-0.6
		c0.1-0.3,0.2-0.6,0.2-1c0-0.2,0-0.4-0.1-0.6c0-0.2-0.1-0.4-0.3-0.6c-0.1-0.2-0.3-0.4-0.6-0.5c-0.3-0.1-0.6-0.2-1-0.2h-1.2V47.7z"/>
</g>
</svg>
