<?xml version="1.0" encoding="utf-8"?>
<!-- Generator: Adobe Illustrator 21.0.2, SVG Export Plug-In . SVG Version: 6.00 Build 0)  -->
<svg version="1.1" id="Capa_1" xmlns="http://www.w3.org/2000/svg" xmlns:xlink="http://www.w3.org/1999/xlink" x="0px" y="0px"
	 viewBox="0 0 56 56" style="enable-background:new 0 0 56 56;" xml:space="preserve">
<style type="text/css">
	.st0{fill:#E9E9E0;}
	.st1{fill:#D9D7CA;}
	.st2{fill:#F3D55B;}
	.st3{fill:#C3DFF4;}
	.st4{fill:#90BAE1;}
	.st5{fill:#FFFFFF;}
</style>
<g>
	<path class="st0" d="M37,0H8C7.2,0,6.5,0.7,6.5,1.9V55c0,0.3,0.7,1,1.5,1h40c0.8,0,1.5-0.7,1.5-1V13c0-0.7-0.1-0.9-0.3-1.1
		L37.6,0.3C37.4,0.1,37.2,0,37,0z"/>
	<polygon class="st1" points="37.5,0.2 37.5,12 49.3,12 	"/>
	<circle class="st2" cx="18.9" cy="14.4" r="4.6"/>
	<polygon class="st3" points="6.5,39 17.5,39 49.5,39 49.5,28 39.5,18.5 29,30 23.5,24.5 	"/>
	<path class="st4" d="M48,56H8c-0.8,0-1.5-0.7-1.5-1.5V39h43v15.5C49.5,55.3,48.8,56,48,56z"/>
	<g>
		<path class="st5" d="M35,44.1v3.2h4.2v1.1H35v4.5h-1.7V42.8h6.3V44L35,44.1L35,44.1z"/>
		<path class="st5" d="M29.9,52.9h-1.7V42.8h1.7V52.9z"/>
	</g>
</g>
<path class="st5" d="M25.4,42.8v1.1h-3v9h-1.7v-9h-3v-1.1H25.4z"/>
</svg>
