<?xml version="1.0" encoding="utf-8"?>
<!-- Generator: Adobe Illustrator 20.0.0, SVG Export Plug-In . SVG Version: 6.00 Build 0)  -->
<svg version="1.1" id="Capa_1" xmlns="http://www.w3.org/2000/svg" xmlns:xlink="http://www.w3.org/1999/xlink" x="0px" y="0px"
	 viewBox="0 0 58 58" style="enable-background:new 0 0 58 58;" xml:space="preserve">
<style type="text/css">
	.st0{opacity:0.65;fill:#CEC9AE;}
	.st1{opacity:0.65;fill:#EDEADA;}
	.st2{opacity:0.65;fill:#F4F3ED;}
	.st3{opacity:0.65;fill:#61B872;}
	.st4{opacity:0.65;fill:#F7B563;}
	.st5{opacity:0.65;fill:#8E8872;}
</style>
<path class="st0" d="M6,58L6,58c-2.8,0-5-2.2-5-5V30h10v23C11,55.8,8.8,58,6,58z"/>
<rect x="11" class="st0" width="46" height="11"/>
<path class="st1" d="M11,35v7v11c0,2.8-2.2,5-5,5h5h6h35c2.8,0,5-2.2,5-5V13H11C11,13,11,35,11,35z"/>
<rect x="11" y="11" class="st2" width="46" height="2"/>
<rect x="17" y="16" class="st3" width="12" height="12"/>
<path class="st0" d="M51,17H35c-0.6,0-1-0.4-1-1s0.4-1,1-1h16c0.6,0,1,0.4,1,1C52,16.6,51.6,17,51,17z"/>
<path class="st0" d="M51,23H35c-0.6,0-1-0.4-1-1s0.4-1,1-1h16c0.6,0,1,0.4,1,1S51.6,23,51,23z"/>
<path class="st0" d="M51,29H35c-0.6,0-1-0.4-1-1s0.4-1,1-1h16c0.6,0,1,0.4,1,1S51.6,29,51,29z"/>
<path class="st0" d="M51,35H18c-0.6,0-1-0.4-1-1s0.4-1,1-1h33c0.6,0,1,0.4,1,1S51.6,35,51,35z"/>
<path class="st0" d="M33,41H18c-0.6,0-1-0.4-1-1s0.4-1,1-1h15c0.6,0,1,0.4,1,1S33.6,41,33,41z"/>
<path class="st0" d="M33,47H18c-0.6,0-1-0.4-1-1s0.4-1,1-1h15c0.6,0,1,0.4,1,1S33.6,47,33,47z"/>
<path class="st0" d="M33,53H18c-0.6,0-1-0.4-1-1s0.4-1,1-1h15c0.6,0,1,0.4,1,1S33.6,53,33,53z"/>
<rect x="39" y="40" class="st4" width="12" height="12"/>
<rect x="23" y="4" class="st5" width="22" height="4"/>
</svg>
